# xmcd CD database file
#
# Track frame offsets:
#	150
#	29787
#	61310
#	92643
#	133601
#	171256
#	210276
#	239992
#	269094
#	300113
#
# Disc length: 4399 seconds
#
# Revision: 0
# Processed by: cddbd v1.5.2PL0 Copyright (c) Steve Scherf et al.
# Submitted via: CDex 1.70beta2
#
DISCID=8f112d0a
DTITLE=Kenny Barron - Minor Blues
DYEAR=1900
DGENRE=Jazz
TTITLE0=Minor Blues
TTITLE1=Beautiful Love
TTITLE2=Emily
TTITLE3=For Heaven's Sake
TTITLE4=How Deep Is The Ocean
TTITLE5=Too Late Now
TTITLE6=Don't Explain
TTITLE7=Hush-A-Bye
TTITLE8=I've Never Been In Love Before	
TTITLE9=My Ideal
EXTD=
EXTT0=
EXTT1=
EXTT2=
EXTT3=
EXTT4=
EXTT5=
EXTT6=
EXTT7=
EXTT8=
EXTT9=
PLAYORDER=
